<?xml version="1.0" encoding="utf-8"?>
<!-- Generator: Adobe Illustrator 24.0.0, SVG Export Plug-In . SVG Version: 6.00 Build 0)  -->
<svg version="1.1" id="레이어_1" xmlns="http://www.w3.org/2000/svg" xmlns:xlink="http://www.w3.org/1999/xlink" x="0px"
	 y="0px" viewBox="0 0 156 155" style="enable-background:new 0 0 156 155;" xml:space="preserve">
<style type="text/css">
	.st0{fill:#FFFFFF;stroke:#7A66C8;stroke-linecap:round;stroke-linejoin:round;stroke-miterlimit:10;}
	.st1{fill:url(#SVGID_1_);}
	.st2{fill:#FFFFFF;}
	.st3{fill:url(#SVGID_2_);}
	.st4{fill:#7A66C8;}
</style>
<g>
	<path class="st0" d="M148.94,58.68c-5.15-15.86-21.35-25.11-37.33-22C110.09,20.07,96.07,7.01,79.06,7.01
		c-16.68,0-30.48,12.55-32.45,28.7c-7.43-1.69-15.16-0.74-22.04,2.77C16.79,42.44,11.01,49.19,8.32,57.5
		c-5.15,15.86,2.52,32.86,17.27,39.73c-8.53,14.34-4.87,33.15,8.9,43.15c13.49,9.8,32.03,7.76,43.12-4.14
		c5.02,5.74,11.83,9.51,19.46,10.72c1.73,0.27,3.46,0.41,5.18,0.41c6.85,0,13.5-2.15,19.15-6.25c13.49-9.8,17.28-28.07,9.39-42.29
		c7.01-3,12.7-8.31,16.2-15.19C150.95,75.85,151.64,66.99,148.94,58.68z"/>
	<linearGradient id="SVGID_1_" gradientUnits="userSpaceOnUse" x1="53.04" y1="21.1708" x2="109.3699" y2="141.9705">
		<stop  offset="0.1041" style="stop-color:#FFEE4E"/>
		<stop  offset="0.5629" style="stop-color:#BF9EFF"/>
		<stop  offset="0.6469" style="stop-color:#C7A3FC"/>
		<stop  offset="0.7747" style="stop-color:#DCAEF5"/>
		<stop  offset="0.9296" style="stop-color:#FEC0EA"/>
		<stop  offset="0.934" style="stop-color:#FFC0E9"/>
	</linearGradient>
	<path class="st1" d="M144.27,60.2c-4.74-14.59-20.42-22.58-35.01-17.84c-0.92,0.3-1.8,0.64-2.67,1.02c0.16-1.2,0.25-2.43,0.25-3.68
		c0-15.35-12.44-27.78-27.78-27.78c-15.35,0-27.78,12.44-27.78,27.78c0,0.96,0.05,1.91,0.14,2.85c-1.1-0.52-2.23-0.99-3.42-1.37
		c-14.59-4.74-30.27,3.24-35.01,17.84c-4.74,14.59,3.24,30.27,17.84,35.01c0.92,0.3,1.84,0.54,2.76,0.74
		c-0.84,0.88-1.63,1.82-2.36,2.83c-9.02,12.41-6.27,29.79,6.15,38.81c12.41,9.02,29.79,6.27,38.81-6.15
		c0.57-0.78,1.09-1.58,1.56-2.39c0.58,1.07,1.23,2.11,1.96,3.12c9.02,12.41,26.4,15.17,38.81,6.15c12.41-9.02,15.17-26.4,6.15-38.81
		c-0.57-0.78-1.16-1.52-1.79-2.22c1.19-0.22,2.39-0.51,3.58-0.9C141.03,90.47,149.01,74.8,144.27,60.2z"/>
	
		<ellipse transform="matrix(0.2298 -0.9732 0.9732 0.2298 -16.7634 137.724)" class="st2" cx="78.63" cy="79.45" rx="38.93" ry="38.93"/>
	<radialGradient id="SVGID_2_" cx="78.6292" cy="79.4527" r="35.5284" gradientUnits="userSpaceOnUse">
		<stop  offset="0" style="stop-color:#FFFFFF"/>
		<stop  offset="0.8959" style="stop-color:#FFEE4E"/>
	</radialGradient>
	<path class="st3" d="M78.63,114.98c-19.59,0-35.53-15.94-35.53-35.53c0-19.59,15.94-35.53,35.53-35.53
		c19.59,0,35.53,15.94,35.53,35.53C114.16,99.04,98.22,114.98,78.63,114.98z"/>
	<g>
		<path class="st4" d="M78.63,99.82c-13.17,0-23.89-10.72-23.89-23.89c0-0.71,0.58-1.29,1.29-1.29c0.71,0,1.29,0.58,1.29,1.29
			c0,11.75,9.56,21.31,21.31,21.31c11.75,0,21.31-9.56,21.31-21.31c0-0.71,0.58-1.29,1.29-1.29c0.71,0,1.29,0.58,1.29,1.29
			C102.52,89.1,91.8,99.82,78.63,99.82z"/>
		<ellipse class="st4" cx="69.26" cy="67.99" rx="3.57" ry="7.62"/>
		<path class="st4" d="M92.13,67.99c0,4.21-1.6,7.62-3.57,7.62c-1.97,0-3.57-3.41-3.57-7.62c0-4.21,1.6-7.62,3.57-7.62
			C90.53,60.37,92.13,63.78,92.13,67.99z"/>
	</g>
	<path class="st0" d="M135,38.73l7.81,1.04L135,40.82c-4.13,0.55-7.38,3.8-7.93,7.93l-1.04,7.81l-1.04-7.81
		c-0.55-4.13-3.8-7.38-7.93-7.93l-7.81-1.04l7.81-1.04c4.13-0.55,7.38-3.8,7.93-7.93l1.04-7.81l1.04,7.81
		C127.61,34.93,130.86,38.18,135,38.73z"/>
	<path class="st0" d="M29.27,114.38l7.81,1.04l-7.81,1.04c-4.13,0.55-7.38,3.8-7.93,7.93l-1.04,7.81l-1.04-7.81
		c-0.55-4.13-3.8-7.38-7.93-7.93l-7.81-1.04l7.81-1.04c4.13-0.55,7.38-3.8,7.93-7.93l1.04-7.81l1.04,7.81
		C21.89,110.57,25.14,113.82,29.27,114.38z"/>
	<path class="st0" d="M142.37,57.36c-2.89,0-5.24-2.35-5.24-5.24c0,2.89-2.35,5.24-5.24,5.24c2.89,0,5.24,2.35,5.24,5.24
		C137.14,59.7,139.48,57.36,142.37,57.36z"/>
	<path class="st0" d="M42.32,132.21c-2.89,0-5.24-2.35-5.24-5.24c0,2.89-2.35,5.24-5.24,5.24c2.89,0,5.24,2.35,5.24,5.24
		C37.08,134.55,39.42,132.21,42.32,132.21z"/>
</g>
</svg>
